<?xml version="1.0" standalone="no"?><!DOCTYPE svg PUBLIC "-//W3C//DTD SVG 1.1//EN" "http://www.w3.org/Graphics/SVG/1.1/DTD/svg11.dtd"><svg t="1684304478915" class="icon" viewBox="0 0 1024 1024" version="1.1" xmlns="http://www.w3.org/2000/svg" p-id="5819" xmlns:xlink="http://www.w3.org/1999/xlink" width="32" height="32"><path d="M983.02862222 118.54506667c-15.39413333-14.0288-33.97404445-31.08408889-48.68551111-44.56675556l-1.96835556-1.79768889c-28.33066667-25.98684445-67.29955555-35.46453333-101.77422222-24.8832-28.64924445 8.84053333-41.05102222 26.53297778-46.43271111 39.78808889-9.32977778 23.06275555-5.66613333 50.91555555 11.24124445 84.90097778l-60.98488889 52.26951111c-34.21297778 3.19715555-69.06311111 12.43591111-103.60604445 27.62524445-121.84462222 53.50968889-225.30275555 54.62471111-275.01226666 55.14808888-13.2096 0.14791111-22.74417778 0.23893333-29.61635556 1.06951112-7.66862222 0.7168-15.17795555 1.57013333-22.45973333 2.6055111-112.4352 15.75822222-210.18168889 87.00586667-261.49546667 190.5664-50.76764445 102.47964445-48.35555555 221.98044445 6.48533334 319.6472889 73.96693333 131.77742222 212.60515555 160.31288889 243.37066666 160.31288888 506.19733333-7.19075555 558.25066667-460.37902222 562.14186667-599.09688888 0.48924445-17.6128-2.32106667-34.92977778-7.83928889-51.34791112l63.65866666-61.62204444c22.016 3.29955555 56.54755555 4.36906667 81.43075556-14.65457778 11.00231111-8.43093333 24.56462222-24.28017778 26.68088889-51.98506666 2.30968889-30.44693333-10.82026667-61.8496-35.13457778-83.97937778zM292.29511111 923.70488889c-1.24017778-0.07964445-126.50951111-11.78737778-193.38808889-130.94684444-46.19377778-82.28408889-48.05973333-179.21137778-5.09724444-265.9328 42.86008889-86.51662222 124.32497778-145.99964445 217.92995555-159.10684445 6.43982222-0.9216 13.05031111-1.67253333 20.48-2.3552 4.52835555-0.54613333 13.64195555-0.63715555 24.20053334-0.75093333 53.53244445-0.58026667 164.92088889-1.77493333 297.54026666-60.02915556 27.648-12.14008889 55.27324445-19.7632 82.14755556-22.71004444l30.40142222 28.02346666c19.92248889 18.34097778 30.9248 44.07751111 30.18524444 70.63324445-4.52835555 161.22311111-62.82808889 536.8832-504.39964444 543.17511111z m664.22328889-714.88853334c-6.7584 5.15413333-23.82506667 6.22364445-42.45048889 2.6624-14.55217778-2.75342222-29.34328889 1.76355555-39.37848889 11.84426667l-57.78773333 55.92177778c-3.56124445-4.07324445-7.36142222-7.96444445-11.38915556-11.6736l-15.98577778-14.72284445 51.38204445-44.032c15.82648889-13.58506667 19.93386667-36.85262222 9.78488889-55.28462222-13.312-24.24604445-15.41688889-39.29884445-13.17546667-44.82844444 1.26293333-3.10613333 6.16675555-5.18826667 10.06933333-6.40568889 15.00728889-4.55111111 32.57457778 0.09102222 45.88657778 12.31075555l1.96835556 1.82044445c14.75697778 13.52817778 33.37102222 30.59484445 48.83342222 44.68053333 11.32088889 10.30826667 17.48764445 24.1664 16.50915556 37.08017778-0.60302222 7.81653333-3.1744 9.77351111-4.26666667 10.62684444z" fill="#666666" p-id="5820"></path><path d="M345.58862222 821.11146667m-38.36586667 0a38.36586667 38.36586667 0 1 0 76.73173334 0 38.36586667 38.36586667 0 1 0-76.73173334 0Z" fill="#666666" p-id="5821"></path><path d="M459.79875555 643.11751111m-38.36586666 0a38.36586667 38.36586667 0 1 0 76.73173333 0 38.36586667 38.36586667 0 1 0-76.73173333 0Z" fill="#666666" p-id="5822"></path><path d="M672.17635555 475.87555555c-20.02488889 6.92906667-30.62897778 28.78577778-23.6999111 48.81066667 6.94044445 20.02488889 28.78577778 30.62897778 48.81066666 23.69991111 20.02488889-6.92906667 30.62897778-28.78577778 23.69991111-48.81066666-6.92906667-20.02488889-28.78577778-30.64035555-48.81066667-23.69991112z" fill="#666666" p-id="5823"></path><path d="M563.00657778 748.71466667m-38.36586667 0a38.36586667 38.36586667 0 1 0 76.73173334 0 38.36586667 38.36586667 0 1 0-76.73173334 0Z" fill="#666666" p-id="5824"></path></svg>